<svg xmlns="http://www.w3.org/2000/svg" viewBox="0 0 500 500">
  <defs>
    <style>
      .a {
        fill: #ffce35;
      }

      .b {
        fill: #3e4959;
      }

      .c {
        fill: #db5531;
      }

      .d {
        fill: #08191e;
      }

      .e {
        fill: #213538;
      }

      .f {
        fill: #fff;
      }

      .g {
        fill: #21d8de;
      }

      .h {
        fill: #27c1c1;
      }

      .i {
        fill: #e1effa;
      }

      .j {
        fill: #ffd55c;
      }

      .k {
        fill: #e64717;
      }

      .l {
        fill: #ff6d3b;
      }

      .m {
        fill: #c4411f;
      }
    </style>
  </defs>
  <title>mobile-app</title>
  <g>
    <circle class="a" cx="250" cy="250" r="245"/>
    <g>
      <circle class="b" cx="287.6" cy="260.74" r="55.68"/>
      <polygon class="b" points="361.85 249.25 330.46 249.25 357.64 233.56 346.16 213.67 318.98 229.36 334.67 202.18 314.78 190.69 299.09 217.87 299.09 186.49 276.12 186.49 276.12 217.88 260.43 190.69 240.54 202.18 256.23 229.36 229.05 213.67 217.56 233.56 244.74 249.25 213.36 249.25 213.36 272.22 244.74 272.22 217.56 287.92 229.05 307.81 256.23 292.12 240.54 319.29 260.43 330.78 276.12 303.6 276.12 334.98 299.09 334.98 299.09 303.6 314.78 330.78 334.67 319.29 318.98 292.12 346.16 307.81 357.64 287.92 330.46 272.22 361.85 272.22 361.85 249.25"/>
      <circle class="c" cx="287.6" cy="260.74" r="36.4"/>
      <circle class="a" cx="287.6" cy="260.74" r="22.4"/>
    </g>
    <g>
      <circle class="b" cx="379.18" cy="168.16" r="34.36"/>
      <polygon class="b" points="425 161.07 405.63 161.07 422.41 151.39 415.32 139.11 398.54 148.8 408.23 132.02 395.95 124.93 386.27 141.71 386.27 122.34 372.09 122.34 372.09 141.71 362.41 124.93 350.13 132.02 359.82 148.8 343.04 139.11 335.95 151.39 352.73 161.07 333.36 161.07 333.36 175.25 352.73 175.25 335.95 184.93 343.04 197.21 359.82 187.53 350.13 204.3 362.41 211.39 372.09 194.61 372.09 213.98 386.27 213.98 386.27 194.61 395.95 211.39 408.23 204.3 398.54 187.53 415.32 197.21 422.41 184.93 405.63 175.25 425 175.25 425 161.07"/>
      <circle class="c" cx="379.18" cy="168.16" r="22.46"/>
      <circle class="a" cx="379.18" cy="168.16" r="13.82"/>
    </g>
    <g>
      <g>
        <g>
          <path class="d" d="M120.54,370.08V394.6a16.39,16.39,0,0,0,16.35,16.35H267.65A16.39,16.39,0,0,0,284,394.6V370.08Z"/>
          <path class="d" d="M284,150.61V126.09a16.39,16.39,0,0,0-16.35-16.35H136.89a16.39,16.39,0,0,0-16.35,16.35v24.52Z"/>
        </g>
        <rect class="d" x="120.54" y="150.61" width="163.46" height="219.47"/>
        <circle class="e" cx="202.27" cy="390.51" r="12.26"/>
      </g>
      <g>
        <rect class="f" x="129.62" y="150.61" width="145.3" height="220.04"/>
        <g>
          <rect class="g" x="138.7" y="159.47" width="24.97" height="24.97" rx="6.29" ry="6.29"/>
          <rect class="h" x="172.76" y="159.47" width="24.97" height="24.97" rx="6.29" ry="6.29"/>
          <rect class="i" x="206.81" y="159.47" width="24.97" height="24.97" rx="6.29" ry="6.29"/>
          <rect class="g" x="240.87" y="159.47" width="24.97" height="24.97" rx="6.29" ry="6.29"/>
          <rect class="j" x="138.7" y="192.65" width="24.97" height="24.97" rx="6.29" ry="6.29"/>
          <rect class="g" x="172.76" y="192.65" width="24.97" height="24.97" rx="6.29" ry="6.29"/>
          <rect class="g" x="206.81" y="192.65" width="24.97" height="24.97" rx="6.29" ry="6.29"/>
          <rect class="k" x="240.87" y="192.65" width="24.97" height="24.97" rx="6.29" ry="6.29"/>
          <rect class="h" x="138.7" y="226.71" width="24.97" height="24.98" rx="6.29" ry="6.29"/>
          <rect class="i" x="172.76" y="226.71" width="24.97" height="24.98" rx="6.29" ry="6.29"/>
          <rect class="g" x="206.81" y="226.71" width="24.97" height="24.98" rx="6.29" ry="6.29"/>
          <rect class="l" x="240.87" y="226.71" width="24.97" height="24.98" rx="6.29" ry="6.29"/>
          <rect class="g" x="138.7" y="260.24" width="24.97" height="24.97" rx="6.29" ry="6.29"/>
          <rect class="m" x="172.76" y="260.24" width="24.97" height="24.97" rx="6.29" ry="6.29"/>
          <rect class="g" x="206.81" y="260.24" width="24.97" height="24.97" rx="6.29" ry="6.29"/>
          <rect class="m" x="138.7" y="337.29" width="24.97" height="24.97" rx="6.29" ry="6.29"/>
          <rect class="m" x="172.76" y="337.29" width="24.97" height="24.97" rx="6.29" ry="6.29"/>
          <rect class="m" x="206.81" y="337.29" width="24.97" height="24.97" rx="6.29" ry="6.29"/>
          <rect class="m" x="240.87" y="337.29" width="24.97" height="24.97" rx="6.29" ry="6.29"/>
        </g>
      </g>
    </g>
  </g>
</svg>
